<svg xmlns="http://www.w3.org/2000/svg" viewBox="0 0 97.63 74.35"><defs><style>.cls-1,.cls-2{fill:none;stroke:#000;stroke-linecap:round;stroke-linejoin:round;}.cls-1{stroke-width:7.22px;}.cls-2{stroke-width:3.61px;}</style></defs><g id="Layer_2" data-name="Layer 2"><g id="Objects"><path class="cls-1" d="M3.61,3.61h9.9a10,10,0,0,1,8.63,5.87l13.77,35a10,10,0,0,0,8.63,5.87H78.62a9.6,9.6,0,0,0,8.42-6L93.68,25.6c1.16-3.27-.74-6-4.21-6h-47"/><path d="M43.29,66.33a8,8,0,1,1-8-8A8,8,0,0,1,43.29,66.33Z"/><path d="M94.71,66.33a8,8,0,1,1-8-8A8,8,0,0,1,94.71,66.33Z"/><line class="cls-2" x1="46.61" y1="30.11" x2="78.49" y2="30.11"/><line class="cls-2" x1="49.86" y1="39.13" x2="76.05" y2="39.13"/></g></g></svg>